# xmcd
#
# Track frame offsets:
#	150
#	14667
#	31884
#	44943
#	56139
#	71655
#	82875
#	97515
#	110232
#	120525
#	132027
#	145467
#	161238
#	174159
#
# Disc length: 2466 seconds
#
# Revision: 0
# Processed by: cddbd v1.5PL3 Copyright (c) Steve Scherf et al.
# Submitted via: dBpowerAMP V4.0
#
DISCID=c309a00e
DTITLE=Pena Branca and Xavantinho - Os Gigantes
DYEAR=1900
DGENRE=Country
TTITLE0=Cutelinho
TTITLE1=Eu, A Viola e Deus
TTITLE2=Felicidade
TTITLE3=Calix Bento
TTITLE4=Vaca Estrela e Boi Fubá
TTITLE5=Amor de Violeiro
TTITLE6=Encontro de Bandeiras
TTITLE7=O Aboiador
TTITLE8=Samba de Roda
TTITLE9=O Grande Sertão
TTITLE10=Casa de Barro
TTITLE11=Fábulas de Carreiro
TTITLE12=Moda e Viola
TTITLE13=Perguntas
EXTD=
EXTT0=
EXTT1=
EXTT2=
EXTT3=
EXTT4=
EXTT5=
EXTT6=
EXTT7=
EXTT8=
EXTT9=
EXTT10=
EXTT11=
EXTT12=
EXTT13=
PLAYORDER=
